<?xml version="1.0" standalone="no"?>
<!DOCTYPE svg PUBLIC "-//W3C//DTD SVG 20010904//EN"
 "http://www.w3.org/TR/2001/REC-SVG-20010904/DTD/svg10.dtd">
<svg version="1.0" xmlns="http://www.w3.org/2000/svg"
 width="3488.000000pt" height="963.000000pt" viewBox="0 0 3488.000000 963.000000"
 preserveAspectRatio="xMidYMid meet">

<g transform="translate(0.000000,963.000000) scale(0.100000,-0.100000)"
fill="#000000" stroke="none">
<path d="M0 4815 l0 -4815 17435 0 17435 0 0 4815 0 4815 -17435 0 -17435 0 0
-4815z m4025 2354 c88 -33 135 -75 178 -159 34 -66 38 -83 38 -148 1 -130 -72
-246 -190 -301 -46 -21 -71 -26 -136 -26 -71 0 -89 4 -147 33 -37 18 -77 45
-90 61 l-23 28 -85 -58 c-277 -186 -508 -452 -669 -767 -127 -250 -194 -460
-237 -743 -25 -159 -25 -482 0 -634 26 -155 60 -280 77 -279 12 1 1037 412
1048 420 2 2 -26 93 -62 202 -76 228 -106 342 -141 532 -35 192 -35 189 -46
358 -11 170 -1 372 26 512 13 73 60 238 70 249 1 2 16 -6 33 -18 16 -12 55
-33 85 -47 31 -14 56 -28 56 -31 0 -3 -9 -36 -20 -72 -35 -120 -50 -247 -50
-436 0 -257 32 -479 111 -775 34 -126 116 -370 129 -384 7 -7 856 329 1307
516 l71 30 -10 31 c-30 84 -218 439 -298 561 -138 210 -201 288 -354 441 -122
121 -236 212 -354 281 -1 0 9 25 23 55 14 30 28 71 31 92 4 20 10 37 14 37 14
0 174 -102 253 -162 292 -222 609 -655 821 -1123 32 -72 60 -132 62 -134 2 -3
1046 414 1067 426 19 11 -140 266 -249 398 -285 346 -638 578 -1069 704 -253
73 -601 96 -876 55 l-46 -6 -6 58 c-3 33 -13 78 -21 100 l-14 41 96 12 c168
20 351 24 487 12 508 -47 946 -232 1330 -562 411 -353 690 -868 756 -1394 17
-134 14 -416 -6 -562 -30 -223 -96 -456 -192 -682 -169 -398 -465 -784 -789
-1027 l-112 -84 -7 -57 c-14 -121 -85 -221 -194 -272 -79 -37 -192 -37 -271 0
-207 98 -257 372 -97 532 21 21 68 53 104 69 58 28 71 30 141 26 87 -5 149
-29 205 -78 l37 -32 67 53 c426 332 725 800 862 1344 72 287 80 636 20 920
-22 107 -63 238 -76 242 -5 2 -238 -89 -518 -203 -281 -113 -520 -210 -532
-215 l-22 -8 25 -63 c86 -218 185 -614 225 -903 30 -211 33 -635 6 -785 -38
-208 -41 -216 -76 -187 -22 19 -87 43 -138 52 -24 4 -43 10 -43 13 0 4 6 41
14 82 24 124 39 411 32 580 -16 351 -69 645 -183 997 l-45 142 -32 -15 c-17
-8 -325 -133 -685 -279 -360 -146 -656 -267 -659 -270 -9 -9 167 -351 246
-478 231 -367 530 -690 830 -897 l63 -43 -26 -27 c-27 -28 -65 -116 -65 -150
0 -17 -9 -14 -76 25 -399 236 -829 765 -1095 1348 -33 73 -64 135 -68 140 -7
7 -1044 -406 -1064 -423 -18 -16 123 -266 235 -418 81 -110 263 -300 368 -385
424 -342 1009 -516 1532 -455 168 19 158 22 175 -42 7 -30 23 -70 34 -89 11
-18 18 -35 17 -37 -13 -12 -233 -36 -375 -41 -837 -28 -1631 414 -2054 1144
-217 374 -310 749 -296 1193 10 307 57 535 173 848 171 458 527 892 910 1113
50 28 52 31 59 85 26 211 244 347 440 273z m23765 -561 c90 -22 114 -40 134
-105 38 -118 28 -318 -19 -390 -49 -74 -403 -96 -547 -34 -39 17 -48 26 -63
68 -35 97 -31 290 7 386 17 44 101 77 228 91 52 6 209 -4 260 -16z m-18580
-105 l35 -9 0 -1359 0 -1359 -45 -10 c-58 -12 -492 -12 -550 0 l-45 10 -3
1357 c-2 1081 0 1359 10 1362 61 23 512 29 598 8z m1806 2 c284 -43 495 -170
630 -381 162 -252 187 -697 56 -986 -111 -246 -300 -401 -581 -476 -89 -23
-116 -26 -358 -30 l-263 -4 -2 -426 -3 -426 -45 -9 c-59 -12 -435 -14 -522 -4
l-68 9 0 1353 c0 1246 1 1354 17 1366 12 11 80 15 297 20 563 11 733 10 842
-6z m3361 -5 l53 -12 30 -96 c80 -250 822 -2557 826 -2567 7 -16 -82 -51 -179
-71 -109 -22 -270 -15 -349 15 -106 41 -165 137 -238 386 -23 77 -45 150 -48
163 l-7 22 -441 3 -441 2 -84 -283 c-65 -222 -88 -286 -104 -295 -30 -16 -329
-22 -424 -8 -107 16 -140 28 -147 55 -3 13 159 522 431 1351 240 731 437 1330
439 1332 22 22 585 25 683 3z m12021 -152 c9 -9 12 -89 12 -300 l0 -289 237 2
237 1 9 -28 c15 -53 19 -285 5 -348 l-13 -58 -238 1 -238 2 3 -493 c3 -472 4
-494 23 -527 40 -69 60 -75 228 -81 l152 -5 22 -85 c18 -69 22 -108 20 -207
-1 -67 -6 -126 -12 -132 -32 -30 -596 -57 -695 -32 -154 38 -257 133 -309 283
-35 101 -41 215 -41 756 l0 524 -152 -3 -153 -4 -12 45 c-15 58 -15 280 0 344
l12 48 153 -1 152 -2 0 118 c0 319 53 433 217 472 60 14 367 13 381 -1z
m-9869 -548 c181 -37 302 -101 414 -220 115 -121 175 -284 163 -441 -7 -100
-28 -150 -84 -199 -82 -73 -237 -99 -409 -69 l-63 11 0 77 c-1 144 -30 283
-71 336 -34 42 -77 59 -155 59 -60 1 -76 -3 -111 -26 -22 -15 -50 -42 -62 -61
-84 -136 -105 -618 -36 -835 33 -104 74 -159 146 -195 133 -66 320 -37 517 82
l81 48 36 -25 c48 -34 121 -132 156 -208 47 -102 47 -107 -1 -151 -131 -119
-314 -207 -514 -248 -106 -21 -326 -21 -432 0 -374 77 -602 373 -654 847 -43
406 44 747 249 970 128 139 310 236 486 261 87 12 253 6 344 -13z m1860 0
c181 -37 302 -101 414 -220 115 -121 175 -284 163 -441 -7 -100 -28 -150 -84
-199 -82 -73 -237 -99 -409 -69 l-63 11 0 77 c-1 144 -30 283 -71 336 -34 42
-77 59 -155 59 -60 1 -76 -3 -111 -26 -22 -15 -50 -42 -62 -61 -84 -136 -104
-619 -36 -835 33 -104 74 -159 146 -195 133 -66 320 -37 517 82 l81 48 36 -25
c48 -34 121 -132 156 -208 47 -102 47 -107 -1 -151 -133 -120 -312 -206 -514
-248 -106 -21 -326 -21 -432 0 -374 77 -602 373 -654 847 -43 406 44 747 249
970 128 139 310 236 486 261 87 12 253 6 344 -13z m1956 -9 c250 -67 431 -221
546 -465 127 -273 144 -703 39 -1012 -107 -315 -327 -515 -635 -579 -105 -21
-325 -21 -429 0 -280 58 -491 228 -603 486 -128 296 -136 724 -20 1041 103
284 341 487 634 543 114 21 362 14 468 -14z m11205 6 c103 -29 171 -59 246
-109 l75 -50 40 37 c77 69 217 120 311 113 38 -3 47 -9 89 -61 51 -63 105
-165 115 -216 5 -26 2 -37 -19 -59 -28 -31 -49 -70 -68 -127 -9 -30 -14 -224
-19 -785 -6 -631 -9 -761 -24 -850 -26 -162 -62 -285 -118 -399 -42 -87 -62
-117 -127 -181 -101 -101 -201 -151 -369 -186 -153 -32 -434 -36 -617 -10
-125 18 -304 60 -390 93 l-50 19 3 58 c4 76 43 209 86 294 50 98 53 100 134
69 167 -64 317 -91 482 -84 150 5 201 22 275 89 82 75 114 176 115 361 l0 78
-28 -20 c-56 -39 -173 -92 -250 -112 -98 -25 -262 -27 -353 -4 -289 75 -468
333 -525 755 -18 138 -18 380 1 505 64 424 316 736 645 799 51 9 286 -2 340
-17z m-9775 -25 c76 -21 133 -75 166 -158 23 -59 24 -61 30 -619 4 -384 9
-571 17 -596 25 -75 83 -105 191 -97 79 6 137 30 209 87 l52 43 0 663 c0 413
4 666 10 670 32 20 525 21 588 1 l21 -7 3 -772 3 -772 23 -50 c13 -27 37 -64
54 -82 l31 -32 -18 -48 c-27 -73 -89 -174 -134 -221 -39 -40 -44 -42 -84 -36
-184 27 -321 106 -401 232 l-27 42 -67 -53 c-208 -166 -388 -237 -571 -224
-254 18 -410 154 -492 428 -22 71 -23 94 -29 659 -6 551 -8 589 -28 662 -11
42 -32 99 -46 126 l-25 50 37 25 c20 14 67 40 105 58 103 48 257 57 382 21z
m3039 13 c166 -35 281 -125 355 -277 83 -170 91 -243 91 -854 0 -544 4 -593
60 -713 l31 -66 -28 -23 c-94 -77 -253 -120 -391 -108 -161 15 -233 68 -278
207 -16 48 -18 116 -23 609 -6 529 -7 557 -26 594 -32 63 -64 81 -148 81 -60
0 -83 -5 -137 -31 -36 -17 -84 -46 -107 -63 l-43 -31 -2 -667 -3 -667 -45 -10
c-58 -11 -472 -11 -530 0 l-45 10 -2 990 c-3 965 -2 992 16 1008 17 16 39 17
183 14 140 -3 169 -6 209 -24 67 -31 122 -86 155 -153 l29 -59 69 55 c201 157
415 219 610 178z m4999 -16 c168 -56 290 -198 348 -404 21 -77 22 -102 29
-660 8 -634 10 -656 68 -772 l30 -59 -62 -43 c-92 -62 -168 -84 -301 -85 -196
-1 -276 45 -330 189 -18 46 -20 96 -25 605 -5 408 -10 565 -19 594 -44 135
-212 141 -392 14 l-59 -41 0 -668 0 -667 -77 -9 c-43 -4 -148 -8 -233 -8 -85
0 -190 4 -232 8 l-78 9 0 998 c0 867 2 999 15 1010 11 9 60 11 182 8 150 -3
173 -6 215 -27 63 -30 121 -90 154 -156 l26 -54 66 55 c71 57 204 131 287 159
118 39 278 41 388 4z m-2070 -19 c112 -43 202 -140 245 -265 15 -45 17 -129
20 -882 l3 -831 -78 -9 c-97 -10 -442 -8 -503 4 l-45 9 -5 715 -5 715 -28 43
c-34 51 -76 71 -151 71 l-55 0 -10 38 c-18 71 -22 182 -11 284 6 57 15 106 19
110 12 13 257 27 406 23 116 -2 150 -6 198 -25z"/>
<path d="M10500 5571 l0 -461 138 0 c149 0 248 12 294 36 50 26 118 95 144
146 40 79 57 163 57 278 0 216 -71 363 -208 431 -47 22 -63 24 -237 27 l-188
4 0 -461z"/>
<path d="M13986 5788 c-44 -192 -141 -559 -200 -757 l-53 -181 294 0 c161 0
293 3 293 7 0 3 -36 135 -79 292 -77 277 -201 743 -201 755 0 3 -6 6 -13 6 -8
0 -23 -45 -41 -122z"/>
<path d="M19975 5334 c-127 -69 -175 -217 -175 -542 0 -363 41 -519 153 -583
35 -20 55 -24 124 -23 73 0 87 4 130 30 38 24 55 43 80 94 50 99 67 215 67
460 1 330 -38 479 -141 550 -46 32 -190 40 -238 14z"/>
<path d="M31375 5342 c-112 -54 -170 -198 -184 -452 -12 -242 10 -432 61 -534
27 -55 46 -74 93 -98 79 -41 229 -5 330 78 l45 36 0 428 0 427 -38 30 c-113
91 -228 123 -307 85z"/>
</g>
</svg>
